<?xml version="1.0" encoding="utf-8"?>
<!-- Generator: Adobe Illustrator 24.2.1, SVG Export Plug-In . SVG Version: 6.00 Build 0)  -->
<svg version="1.1" id="图层_1" xmlns="http://www.w3.org/2000/svg" xmlns:xlink="http://www.w3.org/1999/xlink" x="0px" y="0px"
	 viewBox="0 0 1150 237" style="enable-background:new 0 0 1150 237;" xml:space="preserve">
<style type="text/css">
	.st0{fill:#0019FF;}
	.st1{fill:url(#SVGID_1_);}
	.st2{fill:url(#SVGID_2_);}
	.st3{fill:#1E2959;}
	.st4{fill:#0068FF;}
	.st5{fill:url(#SVGID_3_);}
	.st6{fill:url(#SVGID_4_);}
</style>
<g>
	<path class="st0" d="M79.8,121.3v5.2c0,3.7,3,6.6,6.6,6.6h75.2c3.7,0,6.6-3,6.6-6.6v-5.2c0-3.7-3-6.6-6.6-6.6H86.4
		C82.7,114.7,79.8,117.6,79.8,121.3z"/>
	<linearGradient id="SVGID_1_" gradientUnits="userSpaceOnUse" x1="20.102" y1="151.3876" x2="166.2493" y2="23.8062">
		<stop  offset="0" style="stop-color:#49C980"/>
		<stop  offset="1" style="stop-color:#00A7DB"/>
	</linearGradient>
	<path class="st1" d="M189.8,41.2c-19.5-17.6-45.5-28.1-74-27.3C58.6,15.4,12.3,63.2,12.5,120.3c0,13.9,2.8,27.2,7.7,39.4
		c0.9,2.3,2.7,4,4.9,5c0.2,0.1,0.3,0.1,0.5,0.2c0.3,0.1,0.7,0.2,1,0.3c0.2,0,0.4,0.1,0.6,0.1c0.5,0.1,1,0.1,1.5,0.2c0,0,0.1,0,0.1,0
		h0h13.9h56.1c5.1,0,9.2-4.1,9.2-9.2c0-5.1-4.1-9.2-9.2-9.2H34.5c-3-9.2-4.5-19.1-4.3-29.4c1.1-46.6,39.3-84.9,85.9-86.2
		c23.7-0.7,45.4,8,61.6,22.6c1.7,1.5,3.8,2.4,6,2.4h0C191.7,56.5,195.7,46.6,189.8,41.2z"/>
	<linearGradient id="SVGID_2_" gradientUnits="userSpaceOnUse" x1="216.1501" y1="86.8657" x2="76.1913" y2="221.5877">
		<stop  offset="0" style="stop-color:#0045F2"/>
		<stop  offset="1" style="stop-color:#008CFF"/>
	</linearGradient>
	<path class="st2" d="M218.4,83.8c0-0.1-0.1-0.2-0.2-0.4c0-0.1-0.1-0.1-0.1-0.2c-0.2-0.4-0.4-0.9-0.7-1.3c-0.1-0.1-0.1-0.2-0.2-0.3
		c-0.3-0.4-0.6-0.7-0.9-1.1c-0.1-0.1-0.1-0.2-0.2-0.2c-0.4-0.4-0.8-0.7-1.2-1c-0.2-0.1-0.4-0.2-0.5-0.3c-0.3-0.2-0.5-0.3-0.8-0.5
		c-0.2-0.1-0.5-0.2-0.7-0.3c-0.3-0.1-0.5-0.2-0.8-0.3c-0.2-0.1-0.5-0.1-0.7-0.2c-0.5-0.1-0.9-0.1-1.4-0.1c-0.1,0-0.1,0-0.2,0h-0.1
		h-13.3h-56.7c-5.1,0-9.2,4.1-9.2,9.2v0c0,5.1,4.1,9.2,9.2,9.2h64.1c2.5,8.9,3.7,18.4,3.2,28.3c-2.2,44.9-38.6,81.5-83.4,83.9
		c-23,1.2-44.1-6.3-60.5-19.5c-1.6-1.3-3.6-2.1-5.6-2.1c-8.3,0-12,10.5-5.6,15.7c19.3,15.7,44.2,24.7,71.3,23.6
		c55.6-2.3,100.5-48.3,101.6-104C225,108.6,222.7,95.7,218.4,83.8z"/>
</g>
<g>
	<path class="st3" d="M421.6,156.1h-5.6v27.4c0,3.6,2.1,6.5,4.7,6.5h29v-7.8h-28V156.1z"/>
	<path class="st3" d="M483.5,156.1h-24.4c-2.6,0-4.7,2.9-4.7,6.5v27.4h5.6V164h22.5v6.7h-18.8v7.8h18.8v11.6h5.6v-27.4
		C488.2,159.1,486.1,156.1,483.5,156.1z"/>
	<path class="st3" d="M514.6,156.2H493v7.8h21.6c3.6,0,6.6,4.1,6.6,9.1c0,5-2.9,9.1-6.6,9.1h-16v-11.7H493v19.6h21.6
		c6.7,0,12.2-7.6,12.2-17C526.8,163.8,521.3,156.2,514.6,156.2z"/>
	<path class="st3" d="M550.2,156.2h-21.6v7.8h21.6c3.6,0,6.6,4.1,6.6,9.1c0,5-2.9,9.1-6.6,9.1h-16v-11.7h-5.6v19.6h21.6
		c6.7,0,12.2-7.6,12.2-17C562.5,163.8,557,156.2,550.2,156.2z"/>
	<path class="st3" d="M564.3,173c0,9.4,5.5,17,12.2,17l21.6,0.1l0-7.8l-21.6-0.1c-3.6,0-6.6-4.1-6.6-9.1c0-5,2.9-9.1,6.6-9.1
		L598,164l0-7.8l-21.6-0.1C569.7,156,564.3,163.6,564.3,173z"/>
	<polygon class="st3" points="576.4,177 598,177.2 598,169.3 576.5,169.2 	"/>
	<path class="st3" d="M628.2,156L628.2,156l-21.7,0c-2.6,0-4.7,2.9-4.7,6.5v27.6h5.6v-26.3l20.7,0c0.5,0,0.9,0.3,1.3,0.7
		c0.3,0.5,0.5,1.1,0.5,1.8v0.2c0,1.5-0.9,2.7-1.9,2.7h-10.3c-2.6,0-4.7,2.9-4.7,6.5v7.9c0,3.6,2.1,6.5,4.7,6.5h17v-7.8h-16v-5.3h9.3
		c4.2,0,7.6-4.7,7.6-10.5v-0.2c0-2.8-0.8-5.3-2.2-7.3C632,157.1,630.2,156,628.2,156z"/>
	<path class="st3" d="M680.5,156.1h-9.4c-6.7,0-12.2,7.6-12.2,17s5.5,17,12.2,17h9.4c6.7,0,12.2-7.6,12.2-17
		S687.3,156.1,680.5,156.1z M680.5,182.2h-9.4c-3.6,0-6.6-4.1-6.6-9.1s2.9-9.1,6.6-9.1h9.4c3.6,0,6.6,4.1,6.6,9.1
		S684.2,182.2,680.5,182.2z"/>
	<path class="st3" d="M695.1,162.7v27.4h5.6V164H728v-7.8h-28.2C697.2,156.1,695.1,159.1,695.1,162.7z"/>
	<rect x="703.5" y="169.3" class="st3" width="24.4" height="7.8"/>
	<path class="st3" d="M781.9,178.2l-7.6-19.8L774,158c-0.9-1.3-2.1-2-3.4-2c-1.3,0-2.5,0.7-3.4,2l-0.3,0.4l-7.6,19.8v-22.1h-5.6
		v27.5c0,2.7,1.2,5.1,2.9,6.1c1.8,1,3.8,0.4,5.1-1.5l0.3-0.4l8.5-22.3l8.5,22.3l0.3,0.4c0.9,1.3,2.1,2,3.4,2c0.6,0,1.2-0.2,1.8-0.5
		c1.8-1,2.9-3.4,2.9-6.1v-27.5h-5.6V178.2z"/>
	<polygon class="st3" points="825.7,163.9 825.7,156.1 811.8,156.1 811.8,156.1 806.2,156.1 806.2,156.2 792.2,156.2 792.3,164 
		806.2,164 806.2,182.3 792.2,182.3 792.3,190.1 810.7,190.1 811.8,190.1 811.8,190.1 825.7,190 825.7,182.2 811.8,182.2 811.8,164 
			"/>
	<path class="st3" d="M856.7,169.2H838c-1.1,0-1.9-1.2-1.9-2.7c0-1.5,0.9-2.7,1.9-2.7h26.2V156l-26.2,0c-4.2,0-7.6,4.7-7.6,10.5
		c0,5.8,3.4,10.5,7.6,10.5h18.7c1.1,0,1.9,1.2,1.9,2.7c0,1.5-0.9,2.7-1.9,2.7l-26.2,0v7.8l26.2,0c4.2,0,7.6-4.7,7.6-10.5
		C864.3,173.9,860.9,169.2,856.7,169.2z"/>
	<path class="st3" d="M923.5,156.1h-9.4c-5.5,0-10.2,5.2-11.7,12.2c-1.5-7-6.2-12.2-11.7-12.2H869v7.8h21.6c3.6,0,6.6,4.1,6.6,9.1
		c0,5-2.9,9.1-6.6,9.1h-16v-11.7H869v19.6h21.6c5.5,0,10.2-5.2,11.7-12.2c1.5,7,6.2,12.2,11.7,12.2h9.4c6.7,0,12.2-7.6,12.2-17
		S930.2,156.1,923.5,156.1z M923.5,182.2h-9.4c-3.6,0-6.6-4.1-6.6-9.1s2.9-9.1,6.6-9.1h9.4c3.6,0,6.6,4.1,6.6,9.1
		S927.1,182.2,923.5,182.2z"/>
	<path class="st3" d="M968.5,156.5c-1.8-1-3.8-0.4-5.1,1.5l-0.3,0.4l-8.5,22.3l-8.5-22.3l-0.3-0.4c-1.3-1.9-3.4-2.5-5.1-1.5
		c-1.8,1-2.9,3.4-2.9,6.1V190h5.6V168l7.6,19.8l0.3,0.4c0.9,1.3,2.1,2,3.4,2c1.3,0,2.5-0.7,3.4-2l0.3-0.4l7.6-19.8V190h5.6v-27.5
		C971.4,159.9,970.3,157.5,968.5,156.5z"/>
</g>
<g>
	<g>
		<path class="st3" d="M316.8,47.2H306l-9.6-3.8v3.8v31.6h1.3c1.3,0,2.6-0.2,3.8-0.5c1.2-0.4,2.2-0.8,3-1.3c0.8-0.5,1.2-0.8,1.2-1.1
			v-4.3h12v5.5h1.6c1.1,0,2.2-0.2,3.3-0.5c1.2-0.3,2.2-0.6,3.1-1c0.9-0.4,1.3-0.6,1.3-0.8V51.2c0.9-0.2,1.6-0.4,2.2-0.8
			c0.6-0.3,1-0.7,1.2-1l-9.2-7L316.8,47.2z M305.7,69.3V49.6h12v19.7H305.7z"/>
		<path class="st3" d="M306.4,82.9h-28l-10.3-4.1v4.1v33.2h1.4c1.4,0,2.7-0.2,3.9-0.6c1.2-0.4,2.2-0.8,3-1.3
			c0.8-0.5,1.2-0.9,1.2-1.3v-2.3h29.5v5.1h1.7c1.1,0,2.2-0.2,3.5-0.5c1.3-0.3,2.3-0.7,3.3-1c0.9-0.4,1.4-0.7,1.4-0.9V86.8
			c0.9-0.2,1.6-0.4,2.1-0.8c0.5-0.3,0.9-0.7,1.1-1l-9.4-7.1L306.4,82.9z M307.2,85.2v9.9h-29.5v-9.9H307.2z M277.7,108.1V97.5h29.5
			v10.6H277.7z"/>
		<path class="st3" d="M275.9,69.2c0.2-0.3,0.3-0.6,0.4-0.9c0.7,0.6,1.4,1.2,2.2,1.8c1.5,1.4,2.9,2.8,4.2,4.3c1.3,1.5,2.2,3,3,4.5
			c1.4,0.7,2.7,0.8,3.8,0.5c1.1-0.3,1.9-1,2.4-2c0.5-1,0.6-2.1,0.3-3.4c-0.3-1.3-1-2.6-2.3-3.8c-1.3-1.2-3.1-2.2-5.5-3
			c-1.9-0.6-4.2-1.1-7-1.2c0.5-1.3,1-2.7,1.3-4.1h14.9c1.3,0,2-0.4,2.3-1.3c-1.1-1-2.3-2.1-3.6-3.2c-1.3-1.1-3-2.4-4.9-4l-4.8,6.2
			H279c0-0.1,0-0.2,0-0.3c0.4-2.9,0.7-6,0.9-9.3h12.3c1.3,0,2.1-0.4,2.3-1.3c-1.1-1-2.3-2.1-3.6-3.2c-1.3-1.1-3-2.4-5-4l-4.7,6.2
			H280h-9.4H269c1-1.5,1.9-3.1,2.7-4.8c0.9,0,1.6-0.2,2.1-0.5c0.5-0.3,0.9-0.8,1-1.3l-11.8-3.4c-0.5,3.8-1.3,7.6-2.5,11.2
			c-1.2,3.6-2.5,6.6-4,9.1l1.1,0.8c2.8-1.7,5.4-3.8,7.8-6.5c0.6-0.7,1.3-1.5,1.9-2.3h3.2c-0.1,2.9-0.2,5.6-0.4,8.2
			c0,0.5-0.1,0.9-0.1,1.4h-16.7L254,62h15.7c-0.3,1.9-0.8,3.8-1.4,5.5c-1,2.8-2.7,5.5-5,8c-2.3,2.5-5.7,4.8-10.1,7l0.8,1.2
			c6.1-1.8,10.8-3.9,14.3-6.3C271.7,74.9,274.3,72.2,275.9,69.2z"/>
		<path class="st3" d="M344,88.5l0.8,2.4H393v3.7h1.7c1.1,0,2.2-0.2,3.4-0.5c1.2-0.3,2.2-0.7,3.1-1.1c0.9-0.4,1.3-0.7,1.3-1v-17
			c0.8-0.2,1.4-0.4,2-0.7c0.5-0.3,0.9-0.6,1.2-0.9l-9.1-6.8l-4.4,4.8h-47.5l0.8,2.3H393v6.1h-45.8l0.8,2.4h45v6.3H344z"/>
		<path class="st3" d="M345.9,94.9c0.1,1.4-0.1,2.7-0.8,3.9c-0.6,1.2-1.4,2.3-2.3,3.2c-0.9,0.9-1.8,1.6-2.8,2
			c-1.2,0.6-2.2,1.4-3,2.4c-0.8,1.1-1,2.3-0.6,3.8c0.5,1.6,1.5,2.5,3,2.9c1.5,0.4,2.9,0.2,4.3-0.5c1.3-0.7,2.5-1.8,3.4-3.4
			c0.9-1.6,1.5-3.6,1.5-6.1c0.1-2.4-0.5-5.2-1.7-8.3H345.9z"/>
		<path class="st3" d="M377.1,94c-1.9-0.8-4.6-1.2-7.8-1.3l-0.7,0.6c0.9,0.8,1.9,1.7,2.8,2.9c0.9,1.1,1.8,2.3,2.5,3.6
			c0.7,1.3,1.2,2.6,1.4,3.8c1.3,0.8,2.5,1.1,3.6,0.9c1.1-0.2,2-0.7,2.7-1.5c0.7-0.8,1-1.8,1-2.9c0-1.1-0.4-2.2-1.3-3.3
			C380.5,95.7,379.1,94.8,377.1,94z"/>
		<path class="st3" d="M395,104.9l-0.3-8.9h-0.8c-0.8,2.3-1.6,4.1-2.2,5.5c-0.6,1.4-1.2,2.4-1.8,3c-0.3,0.4-0.7,0.7-1,0.8
			c-0.3,0.2-0.8,0.3-1.5,0.3c-0.7,0.1-1.8,0.1-3.4,0.1c-1.5,0-3.2,0-5,0h-10.3c-1.6,0-2.6-0.1-2.9-0.3c-0.3-0.2-0.5-0.5-0.5-1v-8.8
			c1.6-0.2,2.4-0.9,2.5-2l-12.3-1V106c0,2.1,0.3,3.6,0.9,4.7c0.6,1.1,1.8,1.8,3.5,2.3c1.7,0.4,4.1,0.7,7.2,0.7h10.9
			c4.1,0,7.5-0.1,10.2-0.2c2.7-0.1,4.8-0.4,6.3-0.8c1.5-0.4,2.6-0.9,3.2-1.5c0.6-0.7,0.9-1.5,0.9-2.6c0-0.8-0.2-1.5-0.7-2.1
			C397.5,105.8,396.5,105.3,395,104.9z"/>
		<path class="st3" d="M405.9,97.6c-2.3-1.3-5.3-2.2-9.1-2.9l-0.8,0.6c1.2,1.1,2.4,2.5,3.5,4.1c1.1,1.6,2.1,3.3,2.9,5.1
			c0.8,1.8,1.3,3.5,1.5,5.3c1.4,1,2.8,1.4,4,1.3c1.2-0.1,2.2-0.7,3-1.6c0.8-0.9,1.2-2.1,1.2-3.5c0-1.4-0.4-2.8-1.4-4.3
			C409.7,100.2,408.1,98.8,405.9,97.6z"/>
		<path class="st3" d="M404.8,56.8l-4.2,5.3h-5.4v-5.8h12.8c1.3,0,2-0.4,2.2-1.3c-0.9-0.8-1.9-1.7-3-2.6c-1.1-0.9-2.5-2-4.2-3.3
			l-3.9,4.8h-3.8v-5.5h14c1.2,0,1.9-0.4,2.2-1.3c-0.9-0.9-2-1.8-3.3-2.8c-1.2-1-2.7-2.1-4.5-3.5l-4.3,5.3h-4.2v-4.9
			c1-0.2,1.7-0.4,2.1-0.8c0.4-0.4,0.7-0.8,0.7-1.3L386,37.8V46h-11.3l0.7,2.3H386v5.5h-9.8l0.7,2.4h9.1V62h-10.7
			c-0.7-0.6-1.3-1.1-2.1-1.8c-1.2-1-2.7-2.2-4.4-3.5l-4.3,5.3h-3.2v-5.8H372c1.3,0,2-0.4,2.1-1.3c-0.8-0.8-1.8-1.7-2.9-2.6
			c-1.1-0.9-2.4-1.9-4-3.2l-3.8,4.7h-2v-5.5h11.5c1.2,0,1.9-0.4,2.2-1.3c-0.9-0.9-2-1.8-3.2-2.7c-1.2-0.9-2.6-2-4.3-3.4l-4.1,5.1
			h-2.1v-5c1-0.1,1.7-0.4,2.1-0.8c0.4-0.4,0.6-0.8,0.7-1.3l-11.8-1.1V46h-14.1l0.7,2.3h13.4v5.5h-12.7l0.7,2.4h12V62h-14.6l0.7,2.4
			h13.9v5.3h1.6c1.2,0,2.3-0.1,3.4-0.4c1.1-0.3,2.1-0.6,2.8-1c0.8-0.4,1.2-0.7,1.2-0.9v-3h13c0.3,0,0.6,0,0.8-0.1l0,0.1H386v4.5h1.7
			c1.2,0,2.4-0.1,3.5-0.4c1.1-0.2,2.1-0.6,2.9-0.9c0.8-0.4,1.2-0.7,1.2-0.9v-2.3h15.2c1.3,0,2-0.4,2.3-1.3c-1-0.9-2.1-1.8-3.3-2.8
			C408.1,59.3,406.6,58.1,404.8,56.8z"/>
		<path class="st3" d="M475.5,115.9h1.8c1.2,0,2.3-0.2,3.5-0.5c1.2-0.3,2.2-0.7,3-1.1c0.8-0.4,1.2-0.8,1.2-1V70.6
			c1.1-0.1,1.8-0.4,2.2-0.8c0.4-0.4,0.6-0.9,0.7-1.4l-12.3-1.1V115.9z"/>
		<path class="st3" d="M480.8,50.7c-2.6-2.5-4.6-5.3-6.1-8.3c1.1-0.1,1.9-0.3,2.4-0.6c0.5-0.3,0.8-0.7,0.9-1.2l-13.1-2.8
			c-0.5,2.6-1.4,5.4-2.7,8.5c-1.3,3.1-2.9,6.1-4.8,9.2c-1.9,3.1-3.9,6-6.2,8.8c-2.3,2.8-4.5,5.2-6.9,7.2l0.6,0.9
			c4-2.1,7.9-4.6,11.6-7.6c3.8-3,7.1-6.4,10.1-10.1c3-3.7,5.3-7.5,6.9-11.5c1.4,5.8,3.7,11.1,6.8,16.1c3.2,4.9,6.9,8.9,11.1,11.9
			c0.3-1.8,1-3.6,2.2-5.2c1.2-1.6,2.7-2.7,4.6-3.3v-1.1c-2.9-1.1-6-2.6-9-4.5C486.2,55.4,483.4,53.2,480.8,50.7z"/>
		<path class="st3" d="M448.8,98.3c1.9-2.3,2.8-5.5,2.8-9.6c0-2.3-0.5-4.7-1.4-7.2c-0.9-2.5-2.3-4.9-4.3-7.2
			c-1.9-2.3-4.5-4.4-7.7-6.2c1.1-1.3,2.3-2.8,3.4-4.5c1.2-1.7,2.3-3.4,3.4-5.2c1.1-1.8,2.1-3.5,3.1-5.2c1-1.7,1.8-3.1,2.5-4.4
			c1.9,0,3.2-0.4,3.8-1.1l-9.3-8.8l-5.1,4.8h-7L422.9,40v3.8v72.4h1.7c1.6,0,2.9-0.2,4-0.6c1.1-0.4,1.9-0.9,2.5-1.3
			c0.6-0.5,0.9-0.8,0.9-1v-67h8.6c-0.2,1-0.3,2.1-0.6,3.2c-0.4,2.1-0.8,4.4-1.2,6.7c-0.4,2.3-0.9,4.5-1.3,6.6
			c-0.5,2.1-0.9,3.9-1.3,5.5c2.3,2.7,3.9,5.6,4.9,8.7c1,3.1,1.5,6.1,1.5,9c0,1.3-0.2,2.3-0.5,3c-0.3,0.8-0.8,1.3-1.4,1.6
			c-0.2,0.2-0.5,0.3-0.8,0.4s-0.6,0.1-1,0.1c-0.6,0-1.4,0-2.5,0c-1.1,0-2,0-2.9,0v1c1,0.2,1.8,0.4,2.5,0.8c0.7,0.4,1.1,0.8,1.4,1.3
			c0.3,0.4,0.5,1,0.6,1.9c0.1,0.9,0.3,1.8,0.3,2.8c0.1,1,0.1,2,0.1,2.9C443.5,101.9,446.9,100.6,448.8,98.3z"/>
		<path class="st3" d="M456.1,82.9c0,3.7-0.3,7.5-1,11.5c-0.6,3.9-1.9,7.7-3.9,11.3c-1.9,3.6-4.9,6.9-8.8,9.8l0.7,0.8
			c4.7-1.8,8.5-3.9,11.4-6.5c2.9-2.5,5.2-5.3,6.8-8.2c1.6-2.9,2.7-6,3.3-9.2c0.6-3.2,0.9-6.3,1-9.4V70.6c1-0.1,1.7-0.4,2.1-0.8
			c0.4-0.4,0.7-0.9,0.7-1.4l-12.3-1.2V82.9z"/>
		<path class="st3" d="M542.6,47.1c0.5,1.6,0.8,3.2,0.9,4.7c1.3,1.1,2.6,1.7,3.8,1.6c1.2,0,2.2-0.4,3.1-1.2c0.9-0.8,1.4-1.8,1.6-3
			c0.2-1.3-0.1-2.6-0.8-4c-0.8-1.4-2.1-2.8-4-4c-1.9-1.3-4.7-2.2-8.2-3l-0.8,0.4c0.9,1.2,1.7,2.5,2.5,3.9
			C541.5,43.9,542.1,45.5,542.6,47.1z"/>
		<path class="st3" d="M529.6,79.8c1.1-0.2,1.9-0.8,2.5-1.8c0.6-1,0.8-2.2,0.5-3.7c-0.3-1.5-1.2-3-2.7-4.6c-1.5-1.6-3.9-3.1-7-4.5
			v-4.4h10c1.3,0,2-0.4,2.3-1.3c-0.8-1-1.8-2.1-3-3.2c-1.1-1.1-2.6-2.4-4.3-4l-4.1,6.1h-0.9V41.2c1.1-0.2,1.9-0.5,2.3-0.9
			c0.4-0.4,0.7-0.9,0.7-1.5l-11.8-1.2v20.8h-0.8h-10.5l0.7,2.4h9.5c-0.5,3.6-1.2,7.2-2,10.8c-1,4.4-2.3,8.7-3.8,12.8
			c-1.5,4.1-3.3,7.9-5.3,11.3l1.1,1c4.5-4.4,8.2-9.3,11.3-14.7v34.1h1.8c1.1,0,2.1-0.2,3.2-0.6c1.1-0.4,2-0.9,2.7-1.4
			c0.7-0.5,1.1-0.9,1.1-1.2V67.4c0.4,0.7,0.7,1.4,1,2.1c0.6,1.4,1.2,2.9,1.6,4.5c0.4,1.5,0.7,3,0.7,4.4
			C527.4,79.5,528.6,79.9,529.6,79.8z"/>
		<path class="st3" d="M573.9,76.8l-4.5,4.3h-9.6V70.3h7.9v3.1h1.5c1,0,2.1-0.1,3.2-0.4c1.1-0.3,2.1-0.6,3-1
			c0.9-0.4,1.3-0.6,1.3-0.8v-14c0.8-0.2,1.4-0.4,2-0.7c0.5-0.3,0.9-0.6,1.1-1l-8.8-6.6l-4.2,4.5h-7c1.9-1.4,3.8-3,5.8-4.7
			c2.4-2.1,4.3-3.8,5.9-5.3c1.7,0.1,2.8-0.4,3.2-1.5l-12.4-4.1c-0.3,1.6-0.8,3.4-1.3,5.4c-0.5,2-1.1,3.9-1.7,5.8
			c-0.5,1.6-1,3-1.4,4.4h-7h-17.7l0.8,2.4h16.9v12h-4.5l-10.1-4.8c-0.2,1.3-0.4,2.8-0.6,4.5c-0.2,1.8-0.5,3.6-0.8,5.5
			c-0.3,1.9-0.6,3.7-0.9,5.3c-0.1,0.7-0.2,1.3-0.4,1.8c-0.2,0.1-0.4,0.2-0.7,0.3c-0.9,0.5-1.6,1-2.3,1.6l8.3,5l3.1-3.8h4.8
			c-1.7,4.8-4,9.4-7,13.9c-3.4,5.2-7.6,9.7-12.6,13.4l0.8,1c7.3-3.3,13.5-7.4,18.6-12.3c1.5-1.4,2.8-2.9,4.1-4.4v20.8h1.6
			c2.3,0,4.1-0.3,5.4-1c1.3-0.7,2-1.2,2-1.5V83.5h10.4c-0.1,4.4-0.2,7.7-0.4,9.8c-0.2,2.6-0.5,4.1-1.1,4.6c-0.3,0.4-0.9,0.6-1.9,0.6
			c-0.6,0-1.5,0-2.7-0.1c-1.2-0.1-2.2-0.2-3-0.2v1.2c1.1,0.3,2,0.6,2.8,1c0.7,0.4,1.3,0.9,1.7,1.4c0.5,0.6,0.8,1.4,0.9,2.4
			c0.1,1,0.2,2.1,0.2,3.3c1.8,0,3.4-0.2,4.8-0.5c1.4-0.4,2.6-0.9,3.6-1.6c1-0.8,1.8-1.9,2.3-3.4c0.6-1.5,1-3.6,1.2-6.3
			c0.2-2.7,0.4-6.3,0.5-10.7c1.4-0.3,2.5-0.8,3.1-1.4L573.9,76.8z M559.8,55.8h7.9v12h-7.9V55.8z M542.1,81.1
			c0.2-0.9,0.4-1.8,0.6-2.8c0.4-2,0.8-4,1.1-6c0.1-0.7,0.2-1.4,0.3-2h6.8v10.8h-3.1H542.1z"/>
	</g>
	<path class="st3" d="M611.6,85c-1.9,0-3.6-0.7-4.9-2c-1.3-1.3-2-2.9-2-4.8c0-1.9,0.7-3.5,2-4.8c1.3-1.3,2.9-2,4.9-2
		c1.9,0,3.5,0.7,4.8,2c1.3,1.3,2,2.9,2,4.8c0,1.8-0.7,3.4-2,4.8C615,84.4,613.4,85,611.6,85z"/>
	<g>
		<path class="st4" d="M706.2,95.6c-0.9-0.9-1.7-1.9-2.5-2.9c3.3-5,5.8-10.5,7.6-16.4c1.6-5.4,2.7-11.1,3.5-17.1h4.3
			c1.3,0,2-0.4,2.3-1.3c-0.8-0.8-1.8-1.7-2.9-2.6c-1.1-0.9-2.1-1.7-3-2.5c-0.9-0.8-2.1-1.7-3.3-2.7l-5.3,6.8h-2.6h-7
			c1.6-4.2,3-8.6,4.2-13.3c1-0.1,1.8-0.3,2.3-0.6c0.5-0.3,0.8-0.8,1-1.3l-13.4-3.3c-0.6,5.4-1.4,10.7-2.5,16.1
			c-0.6,2.9-1.3,5.7-2.1,8.5c-0.7-0.7-1.4-1.3-2.2-2c-1.1-0.9-2.5-2.1-4.2-3.5l-3.9,5.3h-2.7c0.4-0.5,0.9-1.1,1.3-1.6
			c4.1-5.3,7.5-10.5,10.1-15.5c1.1,0.2,1.8,0.2,2.3,0c0.5-0.2,0.9-0.5,1.1-1l-10.9-5.3c-1.1,2.8-2.4,5.8-3.9,8.8
			c-0.2-0.2-0.3-0.3-0.5-0.5c-1.1-1-2.5-2.2-4.1-3.5l-4,5.3h-0.2v-7.8c1.1-0.2,1.9-0.5,2.3-0.9c0.4-0.4,0.7-0.9,0.8-1.5l-12.3-1
			v11.2H645l0.7,2.3h9.9v10.8h-13.9l0.7,2.3h21.1c-2.2,3-4.5,5.9-7,8.7h-10.9l0.8,2.4h8c-0.4,0.4-0.7,0.8-1,1.1
			c-3.8,3.9-7.9,7.4-12.3,10.6l0.8,0.8c7.1-3.4,13.3-7.5,18.8-12.3c0.1-0.1,0.1-0.1,0.2-0.2h8.3c-0.2,0.3-0.4,0.6-0.6,1
			c-0.8,1.3-1.7,2.7-2.5,4c-0.2,0.3-0.4,0.6-0.6,0.9l-4.9-0.4v7.8c-0.1,0-0.2,0-0.3,0c-3.8,0.5-7.2,0.9-10.2,1.3
			c-3,0.3-5.4,0.6-7.2,0.8l4.1,10.1c1-0.3,1.8-0.9,2.3-2c4.1-1.2,7.8-2.4,11.3-3.5v8.9c0,0.5-0.1,0.9-0.3,1.1
			c-0.2,0.2-0.6,0.3-1.3,0.3c-0.4,0-1.1,0-2.3-0.1c-1.1-0.1-2.3-0.1-3.5-0.2s-2.8-0.2-4.5-0.3v1.2c2.1,0.3,3.6,0.8,4.6,1.3
			c1,0.5,1.9,1.1,2.5,1.8c0.6,0.7,1.1,1.5,1.3,2.6c0.3,1.1,0.5,2.3,0.6,3.8c3.6-0.3,6.2-1,7.9-1.9c1.7-0.9,2.8-2.1,3.4-3.7
			c0.5-1.5,0.8-3.3,0.8-5.5V92.7c0.3-0.1,0.7-0.2,1-0.3c5.9-2.1,10.9-3.9,14.9-5.4l-0.2-1.2c-4.4,0.6-8.8,1.2-13.1,1.8
			c-0.9,0.1-1.8,0.2-2.6,0.4v-3.5c1.7-0.2,2.6-0.9,2.8-2l-2.7-0.2c0.8-0.4,1.6-0.8,2.4-1.3c2.6-1.4,4.9-2.8,6.8-4
			c0.8-0.1,1.5-0.2,2-0.3c0.5-0.1,0.9-0.3,1.3-0.7l-8.2-7.1l-4.5,4.6h-6.1c3-2.8,5.8-5.7,8.3-8.7h13.5c0.3,0,0.6,0,0.9-0.1
			c-0.5,1.6-0.9,3.1-1.4,4.6c-1.6,4.8-3.3,9-5.1,12.7l1.1,0.7c3.3-3.1,6.2-6.6,8.8-10.6c0.4-0.7,0.8-1.3,1.2-2
			c0.7,4.6,1.6,9,2.6,13.2c0.6,2.6,1.4,5,2.2,7.4c-2.6,4.7-6,9.1-10.2,13.2c-4.4,4.2-9.7,7.9-16.1,11.3l0.5,0.8
			c8.2-2.5,15-5.7,20.5-9.6c3.3-2.3,6.2-4.9,8.7-7.6c0.5,1,1.1,2.1,1.6,3.1c3.2,5.4,7.4,10,12.6,13.7c0.6-2.2,1.6-4,3-5.3
			c1.4-1.3,3.2-2.2,5.5-2.6l0.2-0.8C715.7,103.9,710.5,100.1,706.2,95.6z M664.7,51.6h7c-2,3.6-4.2,7.3-6.7,10.8h-0.3V51.6z
			 M692.2,67.4c1.4-2.6,2.8-5.4,4-8.3h7.8c-0.4,5.3-1.2,10.5-2.3,15.3c-0.8,3.5-2,6.9-3.3,10.1c-0.8-1.6-1.6-3.2-2.3-4.9
			C694.5,75.8,693.2,71.8,692.2,67.4z"/>
		<path class="st4" d="M796.7,63.7c1.7-1,3.1-1.9,4.3-2.8c0.9-0.1,1.6-0.2,2.1-0.3c0.5-0.1,0.9-0.4,1.2-0.8l-9.5-9l-5.5,5.5h-12.6
			c2.4-1.7,4.8-3.5,7.1-5.5c2.9-2.5,5.4-4.8,7.4-6.8c0.9,0.1,1.7,0,2.2-0.2c0.5-0.3,0.9-0.6,1.1-1.1l-12.8-4.7
			c-0.7,1.9-1.5,4-2.5,6.3c-1,2.3-2,4.6-3.1,6.9c-0.9,1.8-1.7,3.5-2.6,5.1h-35.7c-0.4-2-1.2-4.2-2.3-6.6l-1.2,0.1
			c0.4,2.9,0,5.5-1.2,7.9c-1.2,2.4-2.6,4-4.1,5c-1.3,0.7-2.3,1.6-3,2.7c-0.7,1.1-0.8,2.4-0.3,3.9c0.6,1.5,1.7,2.4,3.3,2.7
			c1.6,0.3,3.1,0,4.6-0.9c1.4-0.9,2.6-2.3,3.5-4.3c0.9-1.9,1.3-4.4,1.2-7.3c0-0.3-0.1-0.6-0.1-0.9h51.2c-0.1,0.5-0.3,0.9-0.5,1.4
			c-0.5,1.4-1,2.9-1.5,4.4c-0.4,1.2-0.9,2.3-1.3,3.3l-5.6-5.3l-5.7,5.3h-34.7l0.8,2.3h33.3c-0.4,0.6-0.9,1.2-1.4,1.8
			c-1.3,1.6-2.6,3.1-4,4.7c-0.8,0.9-1.6,1.7-2.3,2.4l-7.1-0.6v8.8h-33.2l0.7,2.3h32.5v14.2c0,0.6-0.1,1-0.4,1.3
			c-0.3,0.3-0.8,0.4-1.5,0.4c-0.4,0-1.2,0-2.3-0.1c-1.1-0.1-2.4-0.1-3.8-0.2c-1.4-0.1-2.8-0.2-4.1-0.3c-1.3-0.1-2.8-0.2-4.5-0.3v1.1
			c2.7,0.4,4.8,1,6.2,1.5c1.4,0.6,2.6,1.3,3.5,2c0.9,0.8,1.5,1.8,1.9,2.9c0.4,1.2,0.7,2.6,0.9,4.2c4.3-0.4,7.4-1.1,9.5-2.1
			c2-1,3.4-2.3,4-4c0.7-1.7,1-3.6,1-5.9V89.5h31.4c1.4,0,2.2-0.4,2.4-1.3c-0.9-0.9-2-1.8-3.1-2.8c-1.1-1-2.3-1.9-3.3-2.7
			c-1.1-0.8-2.3-1.8-3.7-2.9l-5.6,7.3h-18v-5.4c1.7-0.3,2.7-1.1,2.8-2.2l-1.9-0.2c0.6-0.2,1.2-0.5,1.8-0.7c2.5-1,5-2.1,7.5-3.3
			c2.5-1.1,4.6-2.2,6.4-3.1c0.9-0.1,1.7-0.2,2.1-0.3c0.5-0.1,0.9-0.4,1.2-0.8l-2.6-2.5c1.4-0.6,2.8-1.3,4.4-2.1
			C793.3,65.6,795,64.7,796.7,63.7z"/>
		<path class="st4" d="M743.4,48.8c0.7,1.8,1.2,3.5,1.4,5.2c1.4,1.1,2.8,1.6,4.1,1.5c1.3-0.1,2.4-0.6,3.3-1.5c0.9-0.9,1.4-2,1.5-3.4
			c0.1-1.4-0.3-2.8-1.2-4.3c-0.9-1.5-2.4-2.9-4.6-4.3c-2.2-1.3-5.2-2.4-9.1-3.2l-0.7,0.5c1,1.2,2,2.7,2.9,4.3
			C741.9,45.3,742.7,47,743.4,48.8z"/>
		<path class="st4" d="M760.8,47.7c0.4,1.7,0.6,3.4,0.5,5.2c1.4,1.3,2.8,1.9,4.1,2c1.4,0.1,2.5-0.3,3.5-1.1c1-0.8,1.6-1.8,1.9-3.2
			c0.3-1.3,0.1-2.8-0.5-4.4c-0.7-1.6-2-3.1-4-4.6c-2-1.5-4.8-2.7-8.5-3.8l-0.8,0.4c0.7,1.3,1.4,2.7,2.1,4.4
			C759.8,44.3,760.4,45.9,760.8,47.7z"/>
		<path class="st4" d="M825.3,49.4h3.5c0.5,0.9,1,1.9,1.3,3.1c0.5,1.6,0.6,3.1,0.5,4.7c1,1,2,1.6,3.1,1.7c1.1,0.1,2.1-0.1,2.9-0.6
			c0.9-0.5,1.5-1.2,1.8-2.1c0.4-0.9,0.3-1.8-0.1-2.8c-0.4-1-1.4-2-2.8-3c-0.6-0.4-1.3-0.7-2-1h13.5c1.3,0,2-0.4,2.3-1.3
			c-1-0.9-2.1-2-3.4-3.1c-1.3-1.1-2.8-2.4-4.7-3.9l-4.3,6h-9.8c0.8-1.1,1.6-2.3,2.4-3.6c0.9,0.1,1.7-0.1,2.3-0.3
			c0.6-0.3,0.9-0.7,1.1-1.2l-12.9-4.6c-1.2,4.6-2.8,9-4.8,13.3c-2,4.2-4.1,7.7-6.3,10.5l0.9,0.8c3.7-1.9,7.3-4.4,10.8-7.4
			C822.1,53,823.8,51.3,825.3,49.4z"/>
		<path class="st4" d="M881.6,43.2c-0.9-0.8-2.1-1.6-3.3-2.6l-4.9,6.4h-13.1c1-1.1,1.9-2.3,2.8-3.5c0.9,0.1,1.7-0.1,2.3-0.3
			c0.6-0.3,0.9-0.7,1.1-1.2l-12.8-4.5c-0.7,3.3-1.6,6.6-2.7,9.7c-1.1,3.1-2.3,5.7-3.6,7.8l0.9,0.8c2.8-1.3,5.5-2.9,8-5
			c0.6-0.5,1.1-0.9,1.6-1.4h4.4c0.6,0.9,1.2,2,1.7,3.2c0.6,1.6,0.9,3.2,0.8,4.8c1.1,0.9,2.2,1.4,3.3,1.5c1.1,0.1,2.1-0.2,2.9-0.8
			c0.8-0.6,1.4-1.3,1.7-2.3c0.3-0.9,0.2-1.9-0.4-3c-0.5-1.1-1.6-2-3.2-2.9c-0.4-0.2-0.8-0.4-1.2-0.5h17.2c1.3,0,2.1-0.4,2.3-1.3
			c-0.8-0.8-1.8-1.6-2.8-2.5C883.5,44.8,882.5,43.9,881.6,43.2z"/>
		<path class="st4" d="M872.7,64.4h-20.6c0.2-0.1,0.4-0.2,0.5-0.4c0.8-0.7,1.3-1.5,1.5-2.5c0.2-1,0-2-0.7-2.9
			c-0.6-0.9-1.8-1.7-3.6-2.3c-1.8-0.6-4.2-0.8-7.3-0.7l-0.7,0.5c1,0.8,1.9,2,2.7,3.5c0.8,1.5,1.2,3,1.3,4.5c0.2,0.1,0.4,0.2,0.6,0.3
			h-23.9c-0.4-1.7-0.9-3.6-1.8-5.6l-1.2,0.1c0.3,2.1-0.1,4.1-1.2,5.9c-1.1,1.8-2.2,3.1-3.5,3.9c-1.3,0.6-2.3,1.4-3,2.5
			c-0.8,1.1-0.9,2.4-0.5,3.9c0.3,1,0.9,1.8,1.8,2.3c0.8,0.5,1.8,0.8,2.8,0.8c1.1,0,2-0.3,2.9-0.7c1.3-0.8,2.3-2,3-3.8
			c0.8-1.7,1.1-3.8,1-6.3c0-0.2,0-0.4-0.1-0.6h50.5c0,0.3,0,0.6-0.1,0.9c-0.1,1.3-0.2,2.6-0.4,3.8c-0.2,1.2-0.3,2.3-0.5,3.2
			l-7.8-5.7l-4.3,4.6h-24.1l-10.1-3.8v3.8v42.7h1.8c1.7,0,3.1-0.2,4.3-0.6c1.2-0.4,2.1-0.8,2.8-1.3c0.6-0.5,1-0.8,1-1v-3.6h30.4v5.1
			h1.7c1.1,0,2.2-0.2,3.5-0.5c1.3-0.3,2.3-0.7,3.3-1c0.9-0.4,1.4-0.7,1.4-0.8V98.1c0.7-0.2,1.3-0.4,1.8-0.7c0.5-0.3,0.8-0.5,1-0.8
			l-9.1-6.8l-4.3,4.6h-29.7v-7.3h25.2V90h1.7c1.1,0,2.2-0.2,3.5-0.5c1.3-0.3,2.3-0.6,3.3-1c0.9-0.4,1.4-0.7,1.4-0.9V77.1
			c0.7-0.2,1.3-0.4,1.8-0.7c0.5-0.3,0.8-0.5,1-0.8l-0.4-0.3c1.6-0.9,3.2-1.9,5-3.2c1.8-1.3,3.3-2.5,4.5-3.6c0.9-0.1,1.6-0.2,2-0.3
			c0.5-0.1,0.8-0.4,1.1-0.7l-8.4-8.1L872.7,64.4z M866.3,97v10.6h-30.4V97H866.3z M835.9,84.9v-8.9h25.2v8.9H835.9z"/>
		<path class="st4" d="M966.2,106.3c-1-0.9-2.1-1.9-3.4-3l-5.3,7.5h-8.7V95.9h17.6c1.4,0,2.2-0.4,2.3-1.3c-0.8-0.8-1.8-1.6-2.8-2.5
			c-1-0.9-2-1.8-2.9-2.6c-0.9-0.8-2-1.7-3.2-2.8l-4.9,6.9h-6.2V80.4h8.2V84h1.7c1.1,0,2.3-0.2,3.5-0.5c1.2-0.4,2.3-0.8,3.2-1.3
			c0.9-0.5,1.3-0.8,1.3-1.1V48.5c0.8-0.2,1.5-0.5,2.1-0.8c0.6-0.3,1-0.7,1.2-1l-9.3-7.2l-4.6,5h-7.3h-9.6H932l-10-4.1v4.1V46
			c-0.3-0.3-0.6-0.6-1-0.9c-1-0.9-2-1.8-3-2.6c-0.9-0.8-2-1.7-3.3-2.7l-5,6.8h-8.7h-9.2l0.7,2.3h8.5v20.7h-9l0.7,2.3h8.3v23.3
			c-0.9,0.3-1.8,0.5-2.6,0.7c-3.3,0.9-5.7,1.5-7.5,1.8l4.3,11c1.1-0.4,1.8-1.1,2.1-2.3c5.8-3.4,10.7-6.6,14.9-9.4
			c4.1-2.8,7.5-5.2,10.1-7.1l-0.3-0.9c-3.8,1.2-7.7,2.3-11.4,3.4V72h9.3c0.9,0,1.6-0.2,1.9-0.7v14.6h1.5c1.3,0,2.6-0.2,3.8-0.6
			c1.2-0.4,2.2-0.8,3-1.3c0.8-0.5,1.2-0.9,1.2-1.2v-2.3h7.8v13.1h-17.7l0.7,2.3h17v14.9H914l0.7,2.3h55.2c0.6,0,1.1-0.1,1.5-0.3
			c0.4-0.2,0.7-0.6,0.7-1c-0.8-0.8-1.8-1.7-2.9-2.7S967.2,107.2,966.2,106.3z M919.3,67.4c-1.1-1.2-2.5-2.6-4.2-4.3l-4.1,6.5h-0.3
			V49h10.8c0.2,0,0.3,0,0.5,0v21.5C921.2,69.5,920.3,68.5,919.3,67.4z M948.8,78V63.6h8.2V78H948.8z M957,46.8v14.4h-8.2V46.8H957z
			 M939.2,46.8v14.4h-7.8V46.8H939.2z M931.5,78V63.6h7.8V78H931.5z"/>
		<path class="st4" d="M1047.2,77.8c-1.1-0.8-2.4-1.8-3.8-2.9l-5.9,7.3h-18V47.3h28.8c1.3,0,2.1-0.4,2.3-1.3
			c-1.1-0.8-2.2-1.7-3.4-2.7c-1.2-0.9-2.3-1.8-3.5-2.6c-1.1-0.8-2.4-1.7-3.8-2.8l-5.8,7.1h-54.7l0.7,2.3h29.4v34.9h-33.8l0.8,2.4h33
			v31.6h1.8c1.7,0,3.2-0.2,4.4-0.6c1.2-0.4,2.2-0.8,2.8-1.3c0.7-0.5,1-0.8,1-1V84.5h32.1c1.4,0,2.3-0.4,2.4-1.3
			c-1-0.9-2.1-1.8-3.3-2.8C1049.5,79.5,1048.3,78.6,1047.2,77.8z"/>
		<path class="st4" d="M992.3,74.4c1.6,1.4,3.1,2.2,4.5,2.2c1.4,0,2.7-0.5,3.6-1.5c1-1,1.6-2.4,1.8-4.2c0.2-1.8-0.1-3.8-1-6
			c-0.9-2.2-2.5-4.4-4.7-6.7c-2.3-2.3-5.4-4.4-9.5-6.3l-0.9,0.3c1.1,2.2,2,4.5,2.9,7c0.9,2.5,1.6,5,2.2,7.6
			C991.9,69.4,992.2,71.9,992.3,74.4z"/>
		<path class="st4" d="M1027.8,69.8c-1.1,2.8-2.1,5.3-3,7.4l1,0.6c3.1-2.4,6.2-5.4,9.2-8.8c3-3.4,5.8-7.1,8.3-11
			c0.9,0.1,1.7-0.1,2.3-0.4c0.6-0.3,0.9-0.7,1.1-1.1l-13-4.8c-0.8,3-1.7,6.1-2.7,9.3C1029.9,64,1028.9,67,1027.8,69.8z"/>
		<path class="st4" d="M1133.7,68.4c-0.5-2-1.6-4.1-3.5-6.4c-1.8-2.3-4.5-4.4-8.1-6.5c-3.6-2.1-8.1-3.8-13.8-5.3l-0.8,0.7
			c1.7,1.5,3.5,3.2,5.3,5.1c1.8,1.9,3.6,3.9,5.2,6.1c0.5,0.6,0.9,1.2,1.3,1.9c-4,0.1-8.1,0.3-12,0.4c-6.1,0.2-11.9,0.4-17.3,0.5
			c-5.4,0.1-10.2,0.2-14.5,0.3c-1,0-2,0-2.9,0c1.5-0.8,3-1.6,4.5-2.5c3.3-1.9,6.6-4,9.9-6.3c3.3-2.3,6.2-4.5,8.9-6.7
			c2.2-1.9,4.2-3.6,5.8-5.3c0.7,0.1,1.3,0,1.7-0.1c0.9-0.3,1.4-0.7,1.6-1.3l-13.6-5.4c-1,1.9-2.4,4.2-4.3,6.8
			c-1.9,2.6-4,5.1-6.4,7.8c-2.4,2.6-4.8,5-7.2,7.1c-2.4,2.1-4.7,3.7-6.8,4.8c-0.6,0.4-1.8,0.8-3.4,1.1l3.3,11.3
			c0.9-0.3,1.7-0.9,2.5-1.8c12.2-1.7,23.2-3.4,32.7-5.1c7.3-1.3,13.7-2.4,18.9-3.5c0.5,0.8,1.1,1.6,1.6,2.5c1.3,2.2,2.3,4.4,3.1,6.5
			c1.8,1.1,3.4,1.5,4.8,1.1c1.4-0.4,2.4-1.3,3-2.7C1134.1,72.1,1134.2,70.4,1133.7,68.4z"/>
		<path class="st4" d="M1113.3,81.8H1083l-10.9-4.3v4.3v34.1h1.5c1.4,0,2.8-0.2,4.2-0.6c1.3-0.4,2.4-0.9,3.3-1.4
			c0.9-0.6,1.3-1,1.3-1.3v-4.2h31.9v6.9h1.7c1.2,0,2.4-0.2,3.7-0.5c1.3-0.3,2.4-0.7,3.4-1c1-0.4,1.5-0.7,1.5-0.8V86.1
			c1-0.2,1.8-0.5,2.4-0.9c0.6-0.4,1.1-0.7,1.3-1l-10.2-7.9L1113.3,81.8z M1082.4,106V84.1h31.9V106H1082.4z"/>
	</g>
</g>
<rect x="992.1" y="170.1" class="st3" width="101.5" height="5.6"/>
<rect x="285.9" y="170.1" class="st3" width="101.5" height="5.6"/>
</svg>
