<?xml version="1.0" encoding="utf-8"?>
<!-- Generator: Adobe Illustrator 24.2.1, SVG Export Plug-In . SVG Version: 6.00 Build 0)  -->
<svg version="1.1" id="图层_1" xmlns="http://www.w3.org/2000/svg" xmlns:xlink="http://www.w3.org/1999/xlink" x="0px" y="0px"
	 viewBox="0 0 963 227" style="enable-background:new 0 0 963 227;" xml:space="preserve">
<style type="text/css">
	.st0{fill:#0019FF;}
	.st1{fill:url(#SVGID_1_);}
	.st2{fill:url(#SVGID_2_);}
	.st3{fill:#1E2959;}
	.st4{fill:#0068FF;}
	.st5{fill:url(#SVGID_3_);}
	.st6{fill:url(#SVGID_4_);}
</style>
<g>
	<g>
		<path class="st0" d="M77.1,116.4v4.6c0,3.7,3,6.6,6.6,6.6H156c3.7,0,6.6-3,6.6-6.6v-4.6c0-3.7-3-6.6-6.6-6.6H83.7
			C80,109.8,77.1,112.7,77.1,116.4z"/>
		<linearGradient id="SVGID_1_" gradientUnits="userSpaceOnUse" x1="19.3525" y1="145.2838" x2="160.6913" y2="21.9">
			<stop  offset="0" style="stop-color:#49C980"/>
			<stop  offset="1" style="stop-color:#00A7DB"/>
		</linearGradient>
		<path class="st1" d="M183.4,38.7c-18.8-17-44-27.1-71.5-26.4C56.6,13.8,11.8,60,12,115.2c0,13.5,2.7,26.3,7.5,38.1
			c0.9,2.2,2.6,3.9,4.7,4.8c0.2,0.1,0.3,0.1,0.5,0.2c0.3,0.1,0.7,0.2,1,0.3c0.2,0,0.4,0.1,0.6,0.1c0.5,0.1,1,0.1,1.5,0.1
			c0,0,0.1,0,0.1,0h0h13.5h54.3c4.9,0,8.9-4,8.9-8.9c0-4.9-4-8.9-8.9-8.9H33.2c-2.9-8.9-4.4-18.5-4.1-28.4
			c1.1-45.1,38-82.1,83.1-83.4c22.9-0.6,43.9,7.7,59.6,21.8c1.6,1.4,3.7,2.3,5.8,2.3h0C185.3,53.5,189.2,43.9,183.4,38.7z"/>
		<linearGradient id="SVGID_2_" gradientUnits="userSpaceOnUse" x1="208.9502" y1="82.8848" x2="73.5963" y2="213.1742">
			<stop  offset="0" style="stop-color:#0045F2"/>
			<stop  offset="1" style="stop-color:#008CFF"/>
		</linearGradient>
		<path class="st2" d="M211.1,79.9c0-0.1-0.1-0.2-0.2-0.4c0-0.1-0.1-0.1-0.1-0.2c-0.2-0.4-0.4-0.8-0.7-1.2c-0.1-0.1-0.1-0.2-0.2-0.3
			c-0.3-0.4-0.5-0.7-0.8-1c-0.1-0.1-0.1-0.2-0.2-0.2c-0.4-0.4-0.8-0.7-1.2-1c-0.2-0.1-0.3-0.2-0.5-0.3c-0.3-0.2-0.5-0.3-0.8-0.4
			c-0.2-0.1-0.5-0.2-0.7-0.3c-0.3-0.1-0.5-0.2-0.8-0.2c-0.2-0.1-0.5-0.1-0.7-0.2c-0.4-0.1-0.9-0.1-1.4-0.1c-0.1,0-0.1,0-0.2,0h-0.1
			h-12.9H135c-4.9,0-8.9,4-8.9,8.9v0c0,4.9,4,8.9,8.9,8.9h62c2.4,8.6,3.6,17.8,3.1,27.3c-2.1,43.4-37.3,78.8-80.7,81.2
			c-22.2,1.2-42.7-6.1-58.5-18.9c-1.6-1.3-3.5-2-5.5-2c-8,0-11.6,10.1-5.4,15.2c18.7,15.1,42.8,23.9,68.9,22.8
			c53.8-2.2,97.2-46.8,98.2-100.6C217.5,103.9,215.3,91.4,211.1,79.9z"/>
	</g>
	<g>
		<path class="st3" d="M321.6,149.9h-5.4v26.5c0,3.5,2,6.3,4.5,6.3h28v-7.6h-27.1V149.9z"/>
		<path class="st3" d="M381.5,149.9h-23.6c-2.5,0-4.5,2.8-4.5,6.3v26.5h5.4v-25.3h21.8v6.4h-18.2v7.6h18.2v11.3h5.4v-26.5
			C386,152.7,384,149.9,381.5,149.9z"/>
		<path class="st3" d="M411.5,149.9h-20.9v7.6h20.9c3.5,0,6.4,4,6.4,8.8c0,4.9-2.9,8.8-6.4,8.8h-15.5v-11.4h-5.4v18.9h20.9
			c6.5,0,11.8-7.4,11.8-16.4S418,149.9,411.5,149.9z"/>
		<path class="st3" d="M446,149.9h-20.9v7.6H446c3.5,0,6.4,4,6.4,8.8c0,4.9-2.9,8.8-6.4,8.8h-15.5v-11.4h-5.4v18.9H446
			c6.5,0,11.8-7.4,11.8-16.4S452.5,149.9,446,149.9z"/>
		<path class="st3" d="M459.6,166.2c0,9,5.3,16.4,11.8,16.4l20.8,0.1l0-7.6l-20.9-0.1c-3.5,0-6.4-4-6.4-8.8c0-4.9,2.9-8.8,6.3-8.8
			l20.8,0.1l0-7.6l-20.9-0.1C464.9,149.8,459.6,157.1,459.6,166.2z"/>
		<polygon class="st3" points="471.4,170.1 492.2,170.2 492.2,162.7 471.4,162.5 		"/>
		<path class="st3" d="M521.4,149.8L521.4,149.8l-21,0c-2.5,0-4.5,2.8-4.5,6.3v26.7h5.4v-25.4l20.1,0c0.5,0,0.9,0.2,1.2,0.7
			c0.3,0.5,0.5,1.1,0.5,1.7v0.2c0,1.4-0.8,2.6-1.9,2.6h-9.9c-2.5,0-4.5,2.8-4.5,6.3v7.6c0,3.5,2,6.3,4.5,6.3h16.4v-7.6h-15.5v-5.1h9
			c4,0,7.3-4.6,7.3-10.2v-0.2c0-2.7-0.7-5.2-2.1-7.1C525.1,150.8,523.3,149.8,521.4,149.8z"/>
		<path class="st3" d="M572,149.9h-9.1c-6.5,0-11.8,7.4-11.8,16.4s5.3,16.4,11.8,16.4h9.1c6.5,0,11.8-7.4,11.8-16.4
			S578.5,149.9,572,149.9z M572,175.1h-9.1c-3.5,0-6.4-4-6.4-8.8c0-4.9,2.9-8.8,6.4-8.8h9.1c3.5,0,6.4,4,6.4,8.8
			C578.4,171.2,575.5,175.1,572,175.1z"/>
		<path class="st3" d="M586.1,156.2v26.5h5.4v-25.3h26.3v-7.6h-27.2C588.1,149.9,586.1,152.7,586.1,156.2z"/>
		<rect x="594.3" y="162.6" class="st3" width="23.6" height="7.6"/>
		<path class="st3" d="M670,171.2l-7.4-19.2l-0.3-0.4c-0.9-1.2-2-1.9-3.3-1.9c-1.2,0-2.4,0.7-3.3,1.9l-0.3,0.4l-7.4,19.2v-21.3h-5.4
			v26.6c0,2.6,1.1,4.9,2.8,5.9c1.7,1,3.7,0.4,5-1.5l0.3-0.4l8.3-21.5l8.3,21.5l0.3,0.4c0.9,1.3,2.1,1.9,3.3,1.9
			c0.6,0,1.1-0.2,1.7-0.5c1.7-1,2.8-3.3,2.8-5.9v-26.6H670V171.2z"/>
		<polygon class="st3" points="712.4,157.4 712.4,149.8 699,149.9 699,149.8 693.5,149.8 693.5,149.9 680.1,150 680.1,157.5 
			693.5,157.5 693.5,175.1 680.1,175.2 680.1,182.8 697.9,182.7 699,182.7 699,182.7 712.4,182.6 712.4,175 699,175.1 699,157.4 		
			"/>
		<path class="st3" d="M742.4,162.5h-18.1c-1,0-1.9-1.2-1.9-2.6c0-1.4,0.8-2.6,1.9-2.6h25.3v-7.6l-25.3,0c-4,0-7.3,4.6-7.3,10.2
			c0,5.6,3.3,10.2,7.3,10.2h18.1c1,0,1.9,1.2,1.9,2.6c0,1.4-0.8,2.6-1.9,2.6l-25.4,0v7.6l25.4,0c4,0,7.3-4.6,7.3-10.2
			C749.7,167.1,746.4,162.5,742.4,162.5z"/>
		<path class="st3" d="M807,149.9h-9.1c-5.4,0-9.9,5-11.3,11.8c-1.4-6.8-6-11.8-11.3-11.8h-20.9v7.6h20.9c3.5,0,6.4,4,6.4,8.8
			c0,4.9-2.9,8.8-6.4,8.8h-15.5v-11.4h-5.4v18.9h20.9c5.4,0,9.9-5,11.3-11.8c1.4,6.8,6,11.8,11.3,11.8h9.1c6.5,0,11.8-7.4,11.8-16.4
			S813.5,149.9,807,149.9z M807,175.1h-9.1c-3.5,0-6.4-4-6.4-8.8c0-4.9,2.9-8.8,6.4-8.8h9.1c3.5,0,6.4,4,6.4,8.8
			C813.3,171.2,810.5,175.1,807,175.1z"/>
		<path class="st3" d="M850.5,150.2c-1.7-1-3.7-0.4-5,1.5l-0.3,0.4l-8.3,21.5l-8.3-21.5l-0.3-0.4c-1.3-1.9-3.2-2.5-5-1.5
			c-1.7,1-2.8,3.3-2.8,5.9v26.6h5.4v-21.3l7.4,19.2l0.3,0.4c0.9,1.2,2,1.9,3.3,1.9c1.2,0,2.4-0.7,3.3-1.9l0.3-0.4l7.4-19.2v21.3h5.4
			v-26.6C853.4,153.5,852.2,151.2,850.5,150.2z"/>
	</g>
	<g>
		<path class="st3" d="M306.3,44.5h-10.5l-9.3-3.7v3.7v30.6h1.3c1.3,0,2.5-0.2,3.7-0.5c1.2-0.3,2.1-0.8,2.9-1.2
			c0.8-0.5,1.1-0.8,1.1-1.1v-4.1h11.6v5.3h1.5c1,0,2.1-0.1,3.2-0.4c1.1-0.3,2.1-0.6,3-1c0.9-0.3,1.3-0.6,1.3-0.8V48.4
			c0.9-0.2,1.6-0.4,2.1-0.7c0.6-0.3,1-0.6,1.2-1l-8.9-6.8L306.3,44.5z M295.5,65.9v-19h11.6v19H295.5z"/>
		<path class="st3" d="M296.2,79h-27.1l-9.9-4v4v32.1h1.4c1.3,0,2.6-0.2,3.8-0.6c1.2-0.4,2.2-0.8,2.9-1.3c0.8-0.5,1.2-0.9,1.2-1.2
			v-2.3H297v4.9h1.6c1,0,2.1-0.1,3.3-0.4c1.2-0.3,2.3-0.6,3.1-1c0.9-0.4,1.3-0.7,1.3-0.9V82.8c0.9-0.2,1.5-0.4,2.1-0.7
			c0.5-0.3,0.9-0.6,1.1-1l-9.1-6.9L296.2,79z M297,81.3v9.6h-28.6v-9.6H297z M268.5,103.5V93.2H297v10.2H268.5z"/>
		<path class="st3" d="M266.7,65.8c0.2-0.3,0.3-0.6,0.4-0.9c0.7,0.5,1.4,1.1,2.1,1.8c1.5,1.3,2.8,2.7,4,4.2c1.2,1.5,2.2,2.9,2.9,4.4
			c1.4,0.6,2.6,0.8,3.7,0.5c1-0.3,1.8-1,2.3-1.9c0.5-0.9,0.6-2,0.3-3.3c-0.3-1.3-1-2.5-2.2-3.6c-1.2-1.2-3-2.1-5.4-2.9
			c-1.8-0.6-4.1-1-6.8-1.2c0.5-1.3,0.9-2.6,1.2-4h14.4c1.2,0,2-0.4,2.2-1.3c-1-1-2.2-2-3.5-3.1c-1.3-1.1-2.9-2.4-4.8-3.9l-4.6,6
			h-3.4c0-0.1,0-0.2,0-0.2c0.4-2.8,0.7-5.8,0.9-9h11.9c1.3,0,2-0.4,2.2-1.3c-1-1-2.2-2-3.5-3.1c-1.3-1.1-2.9-2.4-4.8-3.9l-4.5,6
			h-1.1h-9.1h-1.5c0.9-1.4,1.8-3,2.6-4.6c0.9,0,1.5-0.2,2.1-0.5c0.5-0.3,0.8-0.7,1-1.2l-11.4-3.3c-0.5,3.7-1.3,7.3-2.4,10.8
			c-1.1,3.5-2.4,6.4-3.9,8.8l1,0.8c2.7-1.6,5.3-3.7,7.6-6.3c0.6-0.7,1.2-1.5,1.8-2.2h3.1c-0.1,2.8-0.2,5.4-0.3,7.9
			c0,0.5-0.1,0.9-0.1,1.3h-16.2l0.6,2.3h15.2c-0.3,1.9-0.8,3.6-1.4,5.3c-1,2.7-2.6,5.3-4.9,7.7c-2.3,2.4-5.5,4.6-9.8,6.7l0.7,1.1
			c5.9-1.7,10.5-3.8,13.8-6.1C262.7,71.3,265.2,68.7,266.7,65.8z"/>
		<path class="st3" d="M332.6,84.4l0.7,2.3H380v3.5h1.6c1,0,2.1-0.2,3.3-0.5c1.2-0.3,2.2-0.7,3-1.1c0.9-0.4,1.3-0.7,1.3-0.9V71.4
			c0.8-0.2,1.4-0.4,1.9-0.6c0.5-0.3,0.9-0.6,1.2-0.9l-8.8-6.6l-4.3,4.6h-45.9l0.7,2.3h46V76h-44.3l0.7,2.3H380v6.1H332.6z"/>
		<path class="st3" d="M334.4,90.6c0.1,1.3-0.1,2.6-0.7,3.8c-0.6,1.2-1.3,2.2-2.2,3.1s-1.8,1.5-2.7,2c-1.2,0.5-2.2,1.3-2.9,2.3
			c-0.8,1-0.9,2.2-0.6,3.6c0.5,1.5,1.5,2.4,2.9,2.8c1.5,0.4,2.8,0.2,4.2-0.5c1.3-0.6,2.4-1.7,3.3-3.3c0.9-1.6,1.4-3.5,1.5-5.9
			c0.1-2.4-0.5-5-1.7-8H334.4z"/>
		<path class="st3" d="M364.6,89.8c-1.9-0.7-4.4-1.1-7.6-1.3l-0.6,0.6c0.9,0.8,1.8,1.7,2.7,2.8c0.9,1.1,1.7,2.3,2.4,3.5
			c0.7,1.2,1.2,2.5,1.4,3.7c1.2,0.8,2.4,1,3.5,0.8c1.1-0.2,1.9-0.7,2.6-1.5c0.6-0.8,1-1.7,1-2.8c0-1.1-0.4-2.1-1.3-3.2
			C367.9,91.4,366.5,90.5,364.6,89.8z"/>
		<path class="st3" d="M381.9,100.3l-0.2-8.6h-0.8c-0.8,2.2-1.5,4-2.1,5.4c-0.6,1.4-1.2,2.4-1.7,2.9c-0.3,0.4-0.6,0.6-0.9,0.8
			c-0.3,0.2-0.8,0.3-1.4,0.3c-0.7,0.1-1.8,0.1-3.3,0.1c-1.5,0-3.1,0-4.8,0h-9.9c-1.6,0-2.5-0.1-2.8-0.3c-0.3-0.2-0.5-0.5-0.5-1v-8.5
			c1.6-0.2,2.4-0.9,2.4-1.9l-11.9-1v12.8c0,2,0.3,3.5,0.9,4.6c0.6,1,1.7,1.8,3.3,2.2c1.6,0.4,4,0.6,7,0.6h10.6c4,0,7.3-0.1,9.8-0.2
			c2.6-0.1,4.6-0.4,6.1-0.7c1.5-0.4,2.5-0.8,3.1-1.5c0.6-0.6,0.8-1.5,0.8-2.5c0-0.8-0.2-1.5-0.7-2.1
			C384.3,101.2,383.3,100.7,381.9,100.3z"/>
		<path class="st3" d="M392.4,93.3c-2.2-1.2-5.1-2.1-8.8-2.8l-0.7,0.6c1.2,1.1,2.3,2.4,3.4,4c1.1,1.6,2,3.2,2.8,4.9
			c0.8,1.7,1.2,3.4,1.4,5.1c1.4,1,2.7,1.4,3.9,1.3c1.2-0.1,2.2-0.6,2.9-1.5c0.8-0.9,1.1-2,1.2-3.3c0-1.3-0.4-2.7-1.4-4.2
			C396.2,95.8,394.6,94.5,392.4,93.3z"/>
		<path class="st3" d="M391.4,53.8l-4,5.1h-5.2v-5.6h12.4c1.2,0,1.9-0.4,2.1-1.3c-0.9-0.8-1.8-1.7-2.9-2.5c-1.1-0.9-2.5-1.9-4.1-3.2
			l-3.8,4.7h-3.7v-5.3h13.6c1.2,0,1.9-0.4,2.1-1.3c-0.9-0.9-2-1.8-3.1-2.7c-1.2-0.9-2.6-2.1-4.4-3.3l-4.1,5.1h-4v-4.8
			c1-0.2,1.7-0.4,2.1-0.8c0.4-0.4,0.6-0.8,0.7-1.3l-11.7-1v7.9h-10.9l0.6,2.3h10.2v5.3h-9.4l0.6,2.3h8.8v5.6h-10.3
			c-0.6-0.5-1.3-1.1-2-1.7c-1.2-1-2.6-2.1-4.3-3.4l-4.2,5.1h-3.1v-5.6h10.3c1.2,0,1.9-0.4,2-1.3c-0.8-0.8-1.7-1.6-2.8-2.5
			c-1.1-0.9-2.4-1.9-3.9-3.1l-3.7,4.5h-1.9v-5.3h11.1c1.2,0,1.9-0.4,2.1-1.3c-0.9-0.9-1.9-1.7-3.1-2.6c-1.1-0.9-2.5-2-4.2-3.3
			l-4,4.9h-2v-4.8c1-0.1,1.6-0.3,2-0.7c0.4-0.4,0.6-0.8,0.6-1.3l-11.4-1v7.9H327l0.6,2.3h13v5.3h-12.3l0.6,2.3h11.6v5.6h-14.1
			l0.6,2.3h13.5v5.1h1.5c1.1,0,2.2-0.1,3.3-0.4c1.1-0.3,2-0.6,2.7-0.9c0.8-0.3,1.1-0.6,1.1-0.8v-2.9h12.6c0.3,0,0.6,0,0.8-0.1l0,0.1
			h10.5v4.4h1.6c1.2,0,2.3-0.1,3.4-0.4c1.1-0.2,2-0.5,2.8-0.9c0.8-0.3,1.1-0.6,1.1-0.8v-2.3h14.7c1.2,0,2-0.4,2.2-1.3
			c-1-0.9-2-1.8-3.2-2.7C394.6,56.2,393.1,55.1,391.4,53.8z"/>
		<path class="st3" d="M459.8,111h1.7c1.1,0,2.3-0.2,3.4-0.5c1.2-0.3,2.1-0.7,2.9-1.1c0.8-0.4,1.1-0.7,1.1-1V67.2
			c1-0.1,1.7-0.3,2.1-0.7c0.4-0.4,0.6-0.8,0.6-1.4l-11.9-1V111z"/>
		<path class="st3" d="M464.9,47.9c-2.5-2.4-4.4-5.1-5.9-8c1.1-0.1,1.8-0.3,2.3-0.6c0.5-0.3,0.7-0.6,0.8-1.1l-12.7-2.7
			c-0.5,2.5-1.4,5.3-2.6,8.2c-1.3,3-2.8,5.9-4.6,8.9c-1.8,3-3.8,5.8-6,8.5c-2.2,2.7-4.4,5-6.7,6.9l0.6,0.9c3.9-2,7.6-4.4,11.3-7.3
			c3.6-2.9,6.9-6.1,9.8-9.7c2.9-3.6,5.1-7.3,6.7-11.1c1.3,5.6,3.5,10.8,6.6,15.6c3.1,4.8,6.6,8.6,10.7,11.5c0.3-1.8,1-3.5,2.1-5
			c1.1-1.6,2.6-2.6,4.4-3.2v-1c-2.9-1.1-5.8-2.5-8.7-4.3C470.1,52.5,467.4,50.4,464.9,47.9z"/>
		<path class="st3" d="M433.9,94c1.8-2.2,2.7-5.3,2.7-9.3c0-2.3-0.4-4.6-1.3-7c-0.9-2.4-2.3-4.7-4.2-6.9c-1.9-2.2-4.4-4.2-7.4-6
			c1.1-1.3,2.2-2.7,3.3-4.4s2.2-3.3,3.3-5c1-1.7,2-3.4,3-5c0.9-1.6,1.8-3,2.5-4.3c1.9,0,3.1-0.3,3.6-1l-9-8.5l-4.9,4.7h-6.8
			l-9.8-3.7v3.7v70h1.6c1.5,0,2.8-0.2,3.8-0.6c1-0.4,1.9-0.8,2.5-1.3c0.6-0.5,0.9-0.8,0.9-1V43.6h8.4c-0.2,1-0.3,2-0.5,3.1
			c-0.4,2.1-0.8,4.2-1.2,6.5c-0.4,2.2-0.8,4.4-1.3,6.4c-0.5,2-0.9,3.8-1.2,5.3c2.2,2.6,3.8,5.4,4.7,8.4c0.9,3,1.4,5.9,1.4,8.8
			c0,1.2-0.1,2.2-0.4,2.9c-0.3,0.7-0.7,1.2-1.3,1.6c-0.2,0.2-0.5,0.3-0.7,0.4s-0.6,0.1-1,0.1c-0.5,0-1.3,0-2.4,0c-1,0-2,0-2.8,0v1
			c1,0.2,1.8,0.4,2.4,0.8c0.6,0.4,1.1,0.8,1.4,1.3c0.3,0.4,0.5,1,0.6,1.8c0.1,0.8,0.2,1.7,0.3,2.7c0.1,1,0.1,1.9,0.1,2.8
			C428.8,97.4,432.1,96.2,433.9,94z"/>
		<path class="st3" d="M441,79c0,3.6-0.3,7.3-0.9,11.1c-0.6,3.8-1.9,7.4-3.8,10.9c-1.9,3.5-4.7,6.6-8.6,9.4l0.6,0.8
			c4.5-1.7,8.2-3.8,11.1-6.3c2.8-2.4,5-5.1,6.6-7.9c1.5-2.8,2.6-5.8,3.2-8.9c0.6-3.1,0.9-6.1,1-9.1V67.2c1-0.1,1.7-0.3,2.1-0.7
			c0.4-0.4,0.6-0.8,0.7-1.4L441,63.9V79z"/>
		<path class="st3" d="M524.7,44.4c0.5,1.6,0.8,3.1,0.8,4.5c1.3,1.1,2.5,1.6,3.7,1.6c1.2,0,2.2-0.4,3-1.2c0.8-0.8,1.3-1.7,1.5-2.9
			c0.2-1.2-0.1-2.5-0.8-3.9s-2-2.7-3.9-3.9c-1.9-1.2-4.5-2.2-7.9-2.9l-0.7,0.4c0.9,1.1,1.7,2.4,2.4,3.8
			C523.6,41.4,524.2,42.9,524.7,44.4z"/>
		<path class="st3" d="M512.1,76c1-0.2,1.9-0.7,2.5-1.7c0.6-1,0.8-2.2,0.5-3.6c-0.3-1.4-1.1-2.9-2.6-4.5c-1.5-1.5-3.7-3-6.8-4.3
			v-4.2h9.7c1.2,0,2-0.4,2.2-1.3c-0.8-1-1.8-2-2.9-3.1c-1.1-1.1-2.5-2.4-4.2-3.9l-4,5.9h-0.9V38.8c1.1-0.2,1.8-0.4,2.2-0.8
			c0.4-0.4,0.6-0.9,0.7-1.5l-11.4-1.1v20.1h-0.8h-10.2l0.6,2.3h9.2c-0.5,3.5-1.2,7-2,10.5c-1,4.3-2.2,8.4-3.7,12.4
			c-1.5,4-3.2,7.6-5.2,11l1,1c4.3-4.2,8-9,10.9-14.2v33h1.7c1,0,2.1-0.2,3.1-0.6c1-0.4,1.9-0.8,2.6-1.3c0.7-0.5,1-0.9,1-1.1V64.1
			c0.3,0.6,0.7,1.3,1,2.1c0.6,1.4,1.1,2.8,1.6,4.3c0.4,1.5,0.6,2.9,0.6,4.2C510,75.7,511.1,76.2,512.1,76z"/>
		<path class="st3" d="M554.9,73.1l-4.4,4.2h-9.3V66.8h7.7v3h1.5c1,0,2-0.1,3.1-0.4c1.1-0.3,2.1-0.6,2.9-0.9
			c0.8-0.3,1.2-0.6,1.2-0.8V54.2c0.8-0.2,1.4-0.4,1.9-0.7c0.5-0.3,0.9-0.6,1.1-0.9l-8.5-6.4l-4,4.4h-6.7c1.8-1.4,3.7-2.9,5.6-4.5
			c2.3-2,4.2-3.7,5.7-5.2c1.7,0.1,2.7-0.4,3.1-1.5l-12-4c-0.3,1.6-0.7,3.3-1.2,5.2c-0.5,1.9-1,3.8-1.6,5.6c-0.5,1.5-0.9,2.9-1.4,4.2
			h-6.8h-17.1l0.7,2.3h16.4v11.6h-4.4l-9.8-4.6c-0.2,1.2-0.4,2.7-0.6,4.4c-0.2,1.7-0.5,3.5-0.7,5.3c-0.3,1.8-0.6,3.5-0.8,5.2
			c-0.1,0.6-0.2,1.2-0.4,1.8c-0.2,0.1-0.4,0.2-0.6,0.3c-0.9,0.5-1.6,1-2.2,1.5l8.1,4.8l3-3.6h4.7c-1.6,4.6-3.9,9.1-6.8,13.4
			c-3.3,5-7.4,9.3-12.2,12.9l0.7,1c7-3.2,13-7.1,18-11.9c1.4-1.4,2.7-2.8,4-4.3v20.1h1.5c2.2,0,3.9-0.3,5.2-1
			c1.3-0.6,1.9-1.1,1.9-1.5V79.6h10c-0.1,4.2-0.2,7.4-0.4,9.5c-0.2,2.5-0.5,4-1,4.4c-0.3,0.4-0.9,0.6-1.9,0.6c-0.6,0-1.5,0-2.6-0.1
			c-1.2-0.1-2.1-0.1-2.9-0.2v1.1c1.1,0.3,2,0.6,2.7,1c0.7,0.4,1.2,0.8,1.6,1.4c0.5,0.6,0.8,1.4,0.9,2.3c0.1,0.9,0.2,2,0.2,3.2
			c1.8,0,3.3-0.2,4.6-0.5c1.3-0.3,2.5-0.9,3.5-1.6c1-0.8,1.7-1.8,2.3-3.3c0.5-1.4,0.9-3.4,1.2-6c0.2-2.6,0.4-6.1,0.4-10.4
			c1.4-0.3,2.4-0.7,3-1.4L554.9,73.1z M541.3,52.9h7.7v11.6h-7.7V52.9z M524.2,77.3c0.2-0.8,0.4-1.7,0.5-2.7c0.4-2,0.7-3.9,1-5.8
			c0.1-0.7,0.2-1.3,0.3-1.9h6.5v10.5h-3H524.2z"/>
	</g>
	<path class="st3" d="M591.3,81.1c-1.9,0-3.5-0.6-4.7-1.9c-1.3-1.3-1.9-2.8-1.9-4.6c0-1.8,0.6-3.4,1.9-4.7c1.3-1.3,2.8-1.9,4.7-1.9
		c1.8,0,3.4,0.6,4.6,1.9c1.3,1.3,1.9,2.9,1.9,4.7c0,1.8-0.6,3.3-1.9,4.6C594.7,80.5,593.2,81.1,591.3,81.1z"/>
	<g>
		<path class="st4" d="M643.5,46.7h3.4c0.5,0.9,0.9,1.9,1.3,3c0.5,1.5,0.6,3,0.4,4.5c1,1,2,1.5,3,1.7c1,0.1,2-0.1,2.8-0.6
			c0.8-0.5,1.4-1.2,1.8-2c0.3-0.8,0.3-1.7-0.1-2.7c-0.4-1-1.3-1.9-2.7-2.9c-0.5-0.4-1.2-0.7-2-1h13.1c1.2,0,2-0.4,2.2-1.3
			c-1-0.9-2.1-1.9-3.3-3c-1.2-1.1-2.7-2.3-4.6-3.8l-4.2,5.8h-9.5c0.8-1.1,1.6-2.3,2.3-3.5c0.9,0.1,1.6-0.1,2.2-0.3
			c0.5-0.3,0.9-0.6,1-1.1l-12.5-4.4c-1.2,4.5-2.7,8.7-4.7,12.8c-1.9,4.1-4,7.5-6.1,10.2l0.9,0.7c3.6-1.8,7.1-4.2,10.4-7.1
			C640.4,50.1,642,48.5,643.5,46.7z"/>
		<path class="st4" d="M697.9,40.6c-0.9-0.8-2-1.6-3.2-2.5l-4.8,6.2h-12.7c0.9-1.1,1.8-2.2,2.7-3.4c0.9,0.1,1.6-0.1,2.2-0.3
			c0.5-0.3,0.9-0.6,1-1.1l-12.4-4.4c-0.6,3.2-1.5,6.3-2.6,9.4c-1.1,3-2.2,5.5-3.5,7.6l0.9,0.8c2.7-1.2,5.3-2.8,7.8-4.8
			c0.5-0.4,1.1-0.9,1.6-1.4h4.2c0.6,0.9,1.2,1.9,1.7,3.1c0.6,1.5,0.9,3.1,0.8,4.6c1.1,0.9,2.2,1.4,3.2,1.5c1.1,0.1,2-0.2,2.8-0.8
			c0.8-0.6,1.3-1.3,1.6-2.2c0.3-0.9,0.1-1.9-0.4-2.9c-0.5-1-1.5-1.9-3.1-2.8c-0.3-0.2-0.7-0.4-1.2-0.5h16.6c1.3,0,2-0.4,2.2-1.3
			c-0.8-0.8-1.7-1.5-2.7-2.4C699.8,42.2,698.8,41.4,697.9,40.6z"/>
		<path class="st4" d="M689.3,61.2h-19.9c0.2-0.1,0.3-0.2,0.5-0.4c0.8-0.7,1.3-1.5,1.5-2.5c0.2-1,0-1.9-0.6-2.8
			c-0.6-0.9-1.8-1.6-3.5-2.2c-1.7-0.5-4-0.8-7.1-0.6l-0.6,0.5c1,0.8,1.8,1.9,2.6,3.3c0.8,1.4,1.2,2.9,1.3,4.3
			c0.2,0.1,0.4,0.2,0.6,0.3h-23.2c-0.3-1.7-0.9-3.5-1.8-5.4l-1.1,0.1c0.3,2-0.1,3.9-1.1,5.7c-1,1.7-2.2,3-3.4,3.8
			c-1.2,0.5-2.2,1.3-2.9,2.4c-0.7,1.1-0.9,2.3-0.4,3.8c0.3,1,0.9,1.7,1.7,2.2c0.8,0.5,1.7,0.8,2.7,0.7c1,0,2-0.3,2.8-0.7
			c1.2-0.8,2.2-2,2.9-3.6c0.7-1.7,1-3.7,1-6.1c0-0.2,0-0.4-0.1-0.6H690c0,0.3,0,0.6-0.1,0.9c-0.1,1.2-0.2,2.5-0.4,3.7
			c-0.2,1.2-0.3,2.2-0.5,3.1l-7.5-5.5l-4.1,4.4H654l-9.8-3.7v3.7v41.3h1.7c1.6,0,3-0.2,4.2-0.6c1.2-0.4,2-0.8,2.7-1.3
			c0.6-0.5,0.9-0.8,0.9-0.9v-3.5h29.4v4.9h1.6c1,0,2.1-0.1,3.3-0.4c1.2-0.3,2.3-0.6,3.1-1c0.9-0.4,1.3-0.6,1.3-0.8v-14
			c0.7-0.2,1.3-0.4,1.7-0.6c0.5-0.3,0.8-0.5,1-0.7l-8.8-6.5l-4.1,4.4h-28.7v-7h24.4V86h1.6c1,0,2.1-0.1,3.3-0.4
			c1.2-0.3,2.3-0.6,3.1-1c0.9-0.3,1.3-0.6,1.3-0.8V73.5c0.7-0.2,1.3-0.4,1.7-0.6c0.5-0.3,0.8-0.5,1-0.7l-0.3-0.2
			c1.5-0.8,3.1-1.9,4.8-3.1c1.7-1.3,3.2-2.4,4.3-3.5c0.9-0.1,1.5-0.1,2-0.3c0.5-0.1,0.8-0.4,1.1-0.7l-8.1-7.8L689.3,61.2z
			 M683.1,92.7v10.2h-29.4V92.7H683.1z M653.7,81v-8.6h24.4V81H653.7z"/>
		<path class="st4" d="M779.7,101.7c-1-0.9-2.1-1.8-3.3-2.9l-5.1,7.3h-8.4V91.6h17c1.3,0,2.1-0.4,2.3-1.3c-0.8-0.8-1.7-1.6-2.7-2.5
			c-1-0.9-1.9-1.7-2.8-2.5c-0.9-0.8-1.9-1.7-3.1-2.7l-4.8,6.7h-6V76.7h7.9v3.5h1.6c1.1,0,2.2-0.2,3.4-0.5c1.2-0.3,2.2-0.8,3.1-1.2
			c0.9-0.5,1.3-0.8,1.3-1.1V45.8c0.8-0.2,1.5-0.5,2.1-0.8c0.6-0.3,1-0.6,1.2-1l-9-6.9l-4.4,4.8h-7.1h-9.3h-7l-9.7-4v4v1.5
			c-0.3-0.3-0.6-0.6-0.9-0.8c-1-0.9-1.9-1.7-2.9-2.5c-0.9-0.8-2-1.7-3.1-2.6l-4.8,6.6h-8.4h-8.9l0.6,2.3h8.2v20h-8.7l0.6,2.3h8.1
			v22.5c-0.9,0.2-1.7,0.5-2.5,0.7c-3.1,0.9-5.6,1.5-7.2,1.8l4.2,10.6c1-0.4,1.7-1.1,2-2.2c5.6-3.3,10.4-6.4,14.4-9.1
			c4-2.7,7.3-5,9.8-6.9l-0.3-0.9c-3.7,1.1-7.4,2.2-11.1,3.3V68.5h9c0.9,0,1.5-0.2,1.9-0.7v14.1h1.5c1.3,0,2.5-0.2,3.7-0.6
			c1.2-0.4,2.2-0.8,2.9-1.3c0.8-0.5,1.1-0.9,1.1-1.1v-2.3h7.5v12.7h-17.1l0.6,2.3h16.5V106h-24.4l0.6,2.3h53.4
			c0.6,0,1.1-0.1,1.5-0.3c0.4-0.2,0.6-0.5,0.7-1c-0.8-0.8-1.7-1.7-2.8-2.6C781.7,103.4,780.7,102.5,779.7,101.7z M734.3,64.1
			c-1.1-1.1-2.5-2.5-4.1-4.1l-4,6.3h-0.2v-20h10.4c0.2,0,0.3,0,0.5,0V67C736.2,66.1,735.3,65.1,734.3,64.1z M762.9,74.3v-14h7.9v14
			H762.9z M770.8,44.2v14h-7.9v-14H770.8z M753.6,44.2v14h-7.5v-14H753.6z M746.1,74.3v-14h7.5v14H746.1z"/>
		<path class="st4" d="M858.1,74.1c-1.1-0.8-2.3-1.7-3.7-2.8l-5.7,7h-17.4V44.6h27.8c1.3,0,2-0.4,2.3-1.3c-1-0.8-2.1-1.7-3.3-2.6
			c-1.2-0.9-2.3-1.8-3.3-2.5c-1.1-0.8-2.3-1.7-3.7-2.7l-5.6,6.9h-52.9l0.6,2.3h28.4v33.7h-32.7l0.7,2.3h31.9v30.6h1.8
			c1.7,0,3.1-0.2,4.3-0.6c1.2-0.4,2.1-0.8,2.7-1.2c0.6-0.5,1-0.8,1-0.9V80.6h31.1c1.4,0,2.2-0.4,2.3-1.3c-1-0.9-2-1.7-3.2-2.7
			C860.3,75.8,859.2,74.9,858.1,74.1z"/>
		<path class="st4" d="M804.9,70.9c1.5,1.4,3,2.1,4.4,2.1c1.4,0,2.6-0.5,3.5-1.5c0.9-1,1.5-2.4,1.8-4.1c0.2-1.7-0.1-3.6-0.9-5.8
			c-0.9-2.1-2.4-4.3-4.6-6.5c-2.2-2.2-5.2-4.2-9.2-6.1l-0.9,0.3c1,2.1,2,4.3,2.8,6.7c0.9,2.4,1.6,4.8,2.1,7.3
			C804.6,66,804.9,68.5,804.9,70.9z"/>
		<path class="st4" d="M839.3,66.4c-1,2.7-2,5.1-2.9,7.1l1,0.6c3-2.4,6-5.2,8.9-8.6c2.9-3.3,5.6-6.9,8-10.6c0.9,0.1,1.6-0.1,2.2-0.4
			c0.5-0.3,0.9-0.7,1-1.1l-12.6-4.7c-0.8,2.9-1.6,5.9-2.6,9C841.3,60.8,840.3,63.7,839.3,66.4z"/>
		<path class="st4" d="M941.7,65.1c-0.5-1.9-1.6-4-3.3-6.2c-1.8-2.2-4.4-4.3-7.8-6.3c-3.4-2-7.9-3.7-13.3-5.1l-0.7,0.6
			c1.7,1.5,3.4,3.1,5.2,5c1.8,1.9,3.5,3.8,5,5.9c0.5,0.6,0.9,1.2,1.3,1.8c-3.9,0.1-7.8,0.3-11.6,0.4c-5.9,0.2-11.5,0.4-16.8,0.5
			c-5.2,0.1-9.9,0.2-14,0.3c-1,0-1.9,0-2.8,0c1.4-0.7,2.9-1.5,4.4-2.4c3.2-1.9,6.4-3.9,9.6-6c3.1-2.2,6-4.3,8.6-6.5
			c2.2-1.8,4-3.5,5.6-5.1c0.6,0.1,1.2,0,1.7-0.1c0.8-0.3,1.4-0.7,1.6-1.3l-13.1-5.2c-1,1.9-2.4,4.1-4.2,6.5c-1.8,2.5-3.9,5-6.2,7.5
			c-2.3,2.5-4.6,4.8-7,6.9c-2.4,2.1-4.6,3.6-6.6,4.6c-0.6,0.4-1.7,0.7-3.3,1l3.2,11c0.9-0.3,1.7-0.8,2.4-1.7
			c11.8-1.7,22.4-3.3,31.7-4.9c7.1-1.2,13.2-2.4,18.3-3.4c0.5,0.8,1,1.6,1.5,2.4c1.3,2.1,2.3,4.2,3,6.3c1.7,1.1,3.3,1.4,4.6,1
			c1.3-0.4,2.3-1.2,2.9-2.6C942.1,68.6,942.2,67,941.7,65.1z"/>
		<path class="st4" d="M922,78h-29.3l-10.6-4.2V78v33h1.5c1.4,0,2.7-0.2,4-0.6c1.3-0.4,2.4-0.8,3.2-1.4c0.9-0.5,1.3-1,1.3-1.3v-4
			h30.8v6.7h1.6c1.1,0,2.3-0.1,3.6-0.4c1.3-0.3,2.4-0.6,3.3-1c0.9-0.4,1.4-0.6,1.5-0.8v-26c1-0.2,1.7-0.5,2.3-0.8
			c0.6-0.3,1-0.7,1.3-1l-9.8-7.7L922,78z M892.1,101.4V80.2h30.8v21.1H892.1z"/>
	</g>
</g>
</svg>
